<svg width="154" height="405" viewBox="0 0 154 405" fill="none" xmlns="http://www.w3.org/2000/svg">
<rect width="122" height="295" transform="matrix(-1 0 0 1 154 80)" fill="#494F80" fill-opacity="0.48"/>
<rect width="119" height="297" transform="matrix(-1 0 0 1 119 108)" fill="#D0D2E7" fill-opacity="0.65"/>
<circle r="47" transform="matrix(1 0 0 -1 78.5 197.5)" fill="white" stroke="#A8ABC2"/>
<circle r="47" transform="matrix(1 0 0 -1 91.5 197.5)" fill="white" stroke="#A8ABC2"/>
<circle r="33.5" transform="matrix(1 0 0 -1 91 95)" fill="white" stroke="#A8ABC2"/>
<circle r="33.5" transform="matrix(1 0 0 -1 81 95)" fill="white" stroke="#A8ABC2"/>
<circle r="19.5" transform="matrix(1 0 0 -1 83 20)" fill="white" stroke="#A8ABC2"/>
<circle r="19.5" transform="matrix(1 0 0 -1 90 20)" fill="white" stroke="#A8ABC2"/>
</svg>
